
        <svg xmlns="http://www.w3.org/2000/svg" xmlns:xlink="http://www.w3.org/1999/xlink" version="1.1" width="3192" height="3192" viewBox="0 0 3192 3192">
			
			<g transform="scale(9.6) translate(10, 10)">
				<defs id="SvgjsDefs2080"/><g id="SvgjsG2081" featureKey="rootContainer" transform="matrix(2.9875715273930257,0,0,2.9875715273930257,0.00001862645013371933,0.00001862645013371933)" fill="#000"><path xmlns="http://www.w3.org/2000/svg" d="M52.3 104.6a52.3 52.3 0 1 1 52.3-52.3 52.4 52.4 0 0 1-52.3 52.3zm0-102.3a50 50 0 1 0 50 50 50 50 0 0 0-50-50z"/></g><g id="SvgjsG2082" featureKey="symbolFeature-0" transform="matrix(1.256830705889151,0,0,1.256830705889151,93.59562772495522,62.85792227639139)" fill="#000"><g xmlns="http://www.w3.org/2000/svg"><path d="M30,46.7c-0.7-1.7-0.7-1.7-1.4-3.5l-2.7,0.1c-0.2-0.2-0.4-0.4-0.6-0.6l11.1-11.1l-0.2,1.1c0.8,0.4,0.8,0.4,1.7,0.9l1-0.9   c0.6,0.1,0.9,0.1,1.5,0.1l0.8,1.1c0.9-0.3,0.9-0.3,1.8-0.6l0-0.8l11.3,10.3l-1.5-0.2c-0.6,1.1-0.6,1.1-1.1,2.1l1.1,1.2   c-0.1,0.7-0.1,1.1-0.2,1.9l-1.3,1c0.4,1.1,0.4,1.1,0.7,2.3l1.7,0.1c0.5,0.6,0.7,0.9,1.2,1.4l-0.2,1.7c1.1,0.6,1.1,0.6,2.1,1.1   l1.2-1.1c0.7,0.1,1.1,0.1,1.9,0.2l1,1.3c1.1-0.4,1.1-0.4,2.3-0.7l0.1-1.7c0.6-0.5,0.9-0.7,1.4-1.2l1.7,0.2c0.6-1.1,0.6-1.1,1.1-2.1   l-1.1-1.2c0.1-0.7,0.1-1.1,0.2-1.9l1.3-1c-0.4-1.1-0.4-1.1-0.7-2.3l-1.7-0.1c-0.5-0.6-0.7-0.9-1.2-1.4l0.2-1.7   c-1.1-0.6-1.1-0.6-2.1-1.1l-1.2,1.1c-0.7-0.1-1.1-0.1-1.9-0.2l-1-1.3c-1.1,0.4-1.1,0.4-2.3,0.7l-0.1,1.6L44.4,31.1l1.1,0.2   c0.4-0.8,0.4-0.8,0.9-1.7l-0.9-1c0.1-0.6,0.1-0.9,0.1-1.5l1.1-0.8c-0.3-0.9-0.3-0.9-0.6-1.8l-1.3,0c-0.4-0.5-0.6-0.7-1-1.1L44,22   c-0.8-0.4-0.8-0.4-1.7-0.9l-1,0.9c-0.6-0.1-0.9-0.1-1.5-0.1l-0.8-1.1c-0.9,0.3-0.9,0.3-1.8,0.6l0,1.3c-0.5,0.4-0.7,0.6-1.1,1   l-1.3-0.2c-0.4,0.8-0.4,0.8-0.9,1.7l0.9,1c-0.1,0.6-0.1,0.9-0.1,1.5l-1.1,0.8c0.3,0.9,0.3,0.9,0.6,1.8l0.8,0L23.9,41.3   c0,0-0.1-0.1-0.1-0.1l0.1-2.7c-1.7-0.7-1.7-0.7-3.5-1.4l-1.8,2c-1.2,0-1.8,0-3,0l-1.8-2c-1.7,0.7-1.7,0.7-3.5,1.4l0.1,2.7   c-0.8,0.8-1.3,1.3-2.1,2.1l-2.7-0.1C5,44.9,5,44.9,4.3,46.7l2,1.8c0,1.2,0,1.8,0,3l-2,1.8C5,55,5,55,5.8,56.7l2.7-0.1   c0.8,0.8,1.3,1.3,2.1,2.1l-0.1,2.7c1.7,0.7,1.7,0.7,3.5,1.4l1.8-2c1.2,0,1.8,0,3,0l1.8,2c1.7-0.7,1.7-0.7,3.5-1.4l-0.1-2.7   c0.8-0.8,1.3-1.3,2.1-2.1l2.7,0.1c0.7-1.7,0.7-1.7,1.4-3.5l-2-1.8c0-1.2,0-1.8,0-3L30,46.7z M60,42.8c2.7,0.2,4.6,2.6,4.4,5.2   c-0.2,2.7-2.6,4.6-5.2,4.4c-2.7-0.2-4.6-2.6-4.4-5.2C55,44.5,57.4,42.5,60,42.8z M17.2,57.6c-4.2,0-7.6-3.4-7.6-7.6   s3.4-7.6,7.6-7.6s7.6,3.4,7.6,7.6S21.4,57.6,17.2,57.6z"/><path d="M93.7,48.6l2-1.8C95,45,95,45,94.2,43.3l-2.7,0.1c-0.8-0.8-1.3-1.3-2.1-2.1l0.1-2.7c-1.7-0.7-1.7-0.7-3.5-1.4l-1.8,2   c-1.2,0-1.8,0-3,0l-1.8-2c-1.7,0.7-1.7,0.7-3.5,1.4l0.1,2.7c-0.8,0.8-1.3,1.3-2.1,2.1l-2.7-0.1C70.7,45,70.7,45,70,46.8l2,1.8   c0,1.2,0,1.8,0,3l-2,1.8c0.7,1.7,0.7,1.7,1.4,3.5l2.7-0.1c0.2,0.2,0.4,0.4,0.6,0.6L63.6,68.4l0.2-1.1c-0.8-0.4-0.8-0.4-1.7-0.9   l-1,0.9c-0.6-0.1-0.9-0.1-1.5-0.1l-0.8-1.1c-0.9,0.3-0.9,0.3-1.8,0.6l0,0.8L45.7,57.1l1.5,0.2c0.6-1.1,0.6-1.1,1.1-2.1L47.2,54   c0.1-0.7,0.1-1.1,0.2-1.9l1.3-1C48.3,50,48.3,50,48,48.8l-1.7-0.1c-0.5-0.6-0.7-0.9-1.2-1.4l0.2-1.7c-1.1-0.6-1.1-0.6-2.1-1.1   l-1.2,1.1c-0.7-0.1-1.1-0.1-1.9-0.2l-1-1.3c-1.1,0.4-1.1,0.4-2.3,0.7l-0.1,1.7c-0.6,0.5-0.9,0.7-1.4,1.2l-1.7-0.2   c-0.6,1.1-0.6,1.1-1.1,2.1l1.1,1.2c-0.1,0.7-0.1,1.1-0.2,1.9l-1.3,1c0.4,1.1,0.4,1.1,0.7,2.3l1.7,0.1c0.5,0.6,0.7,0.9,1.2,1.4   l-0.2,1.7c1.1,0.6,1.1,0.6,2.1,1.1l1.2-1.1c0.7,0.1,1.1,0.1,1.9,0.2l1,1.3c1.1-0.4,1.1-0.4,2.3-0.7l0.1-1.6l11.6,10.6l-1.1-0.2   c-0.4,0.8-0.4,0.8-0.9,1.7l0.9,1c-0.1,0.6-0.1,0.9-0.1,1.5l-1.1,0.8c0.3,0.9,0.3,0.9,0.6,1.8l1.3,0c0.4,0.5,0.6,0.7,1,1.1L56,78   c0.8,0.4,0.8,0.4,1.7,0.9l1-0.9c0.6,0.1,0.9,0.1,1.5,0.1l0.8,1.1c0.9-0.3,0.9-0.3,1.8-0.6l0-1.3c0.5-0.4,0.7-0.6,1.1-1l1.3,0.2   c0.4-0.8,0.4-0.8,0.9-1.7l-0.9-1c0.1-0.6,0.1-0.9,0.1-1.5l1.1-0.8c-0.3-0.9-0.3-0.9-0.6-1.8l-0.8,0l11.1-11.1c0,0,0.1,0.1,0.1,0.1   l-0.1,2.7c1.7,0.7,1.7,0.7,3.5,1.4l1.8-2c1.2,0,1.8,0,3,0l1.8,2c1.7-0.7,1.7-0.7,3.5-1.4l-0.1-2.7c0.8-0.8,1.3-1.3,2.1-2.1l2.7,0.1   c0.7-1.7,0.7-1.7,1.4-3.5l-2-1.8C93.7,50.4,93.7,49.8,93.7,48.6z M40,57.2c-2.7-0.2-4.6-2.6-4.4-5.2c0.2-2.7,2.6-4.6,5.2-4.4   c2.7,0.2,4.6,2.6,4.4,5.2C45,55.5,42.6,57.5,40,57.2z M82.8,57.7c-4.2,0-7.6-3.4-7.6-7.6s3.4-7.6,7.6-7.6s7.6,3.4,7.6,7.6   S87.1,57.7,82.8,57.7z"/></g></g><g id="SvgjsG2083" featureKey="nameFeature-0" transform="matrix(0.6391410294094987,0,0,0.6391410294094987,55.07963718584457,175.122842377266)" fill="#000"><path d="M16.16 40.56 c-8.44 0 -14.72 -6.32 -14.72 -14.6 c0 -8.24 6.28 -14.52 14.6 -14.52 c7.56 0 12.28 4.64 13.56 9.08 l-5.36 1.32 c-0.92 -2.72 -3.92 -5.24 -8.16 -5.24 c-5.52 0 -9.04 4.28 -9.04 9.32 s3.52 9.48 9.04 9.48 c4.24 0 7.24 -2.44 8.16 -5.2 l5.32 1.36 c-1.28 4.48 -6 9 -13.4 9 z M40.41 40.56 c-6.24 0 -10.84 -4.64 -10.84 -10.68 c0 -6.08 4.6 -10.68 10.84 -10.68 s10.8 4.6 10.8 10.68 c0 6.04 -4.56 10.68 -10.8 10.68 z M40.41 35.76 c3.36 0 5.68 -2.52 5.68 -5.88 s-2.32 -5.88 -5.68 -5.88 c-3.4 0 -5.68 2.52 -5.68 5.88 s2.28 5.88 5.68 5.88 z M57.70000000000001 22.76 c1.2 -2.36 3.52 -3.72 6.68 -3.28 l0 4.96 c-4.32 -0.68 -6.68 1.32 -6.68 6.76 l0 8.8 l-5.28 0 l0 -20.24 l5.28 0 l0 3 z M74.63000000000001 40.56 c-6.24 0 -10.84 -4.64 -10.84 -10.68 c0 -6.08 4.6 -10.68 10.84 -10.68 s10.8 4.6 10.8 10.68 c0 6.04 -4.56 10.68 -10.8 10.68 z M74.63000000000001 35.76 c3.36 0 5.68 -2.52 5.68 -5.88 s-2.32 -5.88 -5.68 -5.88 c-3.4 0 -5.68 2.52 -5.68 5.88 s2.28 5.88 5.68 5.88 z M105.76 40 l-6.04 0 l-4.76 -6.44 l-4.76 6.44 l-6 0 l7.56 -10.24 l-7.24 -10 l6 0 l4.44 6.12 l4.48 -6.12 l5.96 0 l-7.2 10 z M133.38 16.96 l-15.28 0 l0 6.4 l13.24 0 l0 4.8 l-13.24 0 l0 6.88 l15.24 0 l0 4.96 l-20.6 0 l0 -28 l20.64 0 l0 4.96 z M146.79 19.2 c5.28 0 7.96 3.56 7.96 8.96 l0 11.84 l-5.28 0 l0 -10.84 c0 -3.08 -1.4 -5.04 -4.32 -5.04 c-2.96 0 -4.88 2.32 -4.88 5.88 l0 10 l-5.28 0 l0 -20.24 l5.28 0 l0 2.56 c1.4 -1.8 3.6 -3.12 6.52 -3.12 z M172.11999999999998 19.76 l5.28 0 l0 19.52 c0 5.64 -4.12 9.68 -10.44 9.68 c-4.96 0 -8.08 -2.28 -9.76 -5.32 l4.6 -1.64 c1.04 1.64 2.72 2.6 5.28 2.6 c3.32 0 5 -2.32 5.04 -5.32 l0 -2.44 c-1.52 1.88 -3.72 2.92 -6.4 2.92 c-5.8 0 -10 -4.52 -10 -10.28 c0 -6.08 4.2 -10.28 10 -10.28 c2.68 0 4.88 1.04 6.4 2.92 l0 -2.36 z M166.64 35 c3.24 0 5.6 -2.24 5.6 -5.52 c0 -3.24 -2.36 -5.52 -5.6 -5.52 c-3.36 0 -5.68 2.24 -5.68 5.52 s2.32 5.52 5.68 5.52 z M182.48999999999998 16.92 c-1.76 0 -3.16 -1.36 -3.16 -3.12 c0 -1.68 1.4 -3.04 3.16 -3.04 s3.16 1.36 3.16 3.04 c0 1.76 -1.4 3.12 -3.16 3.12 z M179.76999999999998 40 l0 -20.24 l5.32 0 l0 20.24 l-5.32 0 z M199.38 19.2 c5.28 0 7.96 3.56 7.96 8.96 l0 11.84 l-5.28 0 l0 -10.84 c0 -3.08 -1.4 -5.04 -4.32 -5.04 c-2.96 0 -4.88 2.32 -4.88 5.88 l0 10 l-5.28 0 l0 -20.24 l5.28 0 l0 2.56 c1.4 -1.8 3.6 -3.12 6.52 -3.12 z M219.31 40.56 c-6.48 0 -11 -4.28 -11 -10.68 c0 -6.04 4.24 -10.68 10.6 -10.68 c6.64 0 10.44 4.6 10.44 10.4 c0 0.64 0 1.24 -0.12 1.88 l-15.72 0 c0.36 2.6 2.2 4.6 5.88 4.6 c2.56 0 4.12 -1.16 4.92 -2.68 l4.76 1.4 c-1.16 2.64 -4.44 5.76 -9.76 5.76 z M213.51 28.16 l10.68 0 c-0.24 -2.48 -2.16 -4.48 -5.32 -4.48 c-3.08 0 -5.08 2.16 -5.36 4.48 z M240.32 40.56 c-6.48 0 -11 -4.28 -11 -10.68 c0 -6.04 4.24 -10.68 10.6 -10.68 c6.64 0 10.44 4.6 10.44 10.4 c0 0.64 0 1.24 -0.12 1.88 l-15.72 0 c0.36 2.6 2.2 4.6 5.88 4.6 c2.56 0 4.12 -1.16 4.92 -2.68 l4.76 1.4 c-1.16 2.64 -4.44 5.76 -9.76 5.76 z M234.51999999999998 28.16 l10.68 0 c-0.24 -2.48 -2.16 -4.48 -5.32 -4.48 c-3.08 0 -5.08 2.16 -5.36 4.48 z M256.84999999999997 22.76 c1.2 -2.36 3.52 -3.72 6.68 -3.28 l0 4.96 c-4.32 -0.68 -6.68 1.32 -6.68 6.76 l0 8.8 l-5.28 0 l0 -20.24 l5.28 0 l0 3 z M266.85999999999996 16.92 c-1.76 0 -3.16 -1.36 -3.16 -3.12 c0 -1.68 1.4 -3.04 3.16 -3.04 s3.16 1.36 3.16 3.04 c0 1.76 -1.4 3.12 -3.16 3.12 z M264.14 40 l0 -20.24 l5.32 0 l0 20.24 l-5.32 0 z M283.74999999999994 19.2 c5.28 0 7.96 3.56 7.96 8.96 l0 11.84 l-5.28 0 l0 -10.84 c0 -3.08 -1.4 -5.04 -4.32 -5.04 c-2.96 0 -4.88 2.32 -4.88 5.88 l0 10 l-5.28 0 l0 -20.24 l5.28 0 l0 2.56 c1.4 -1.8 3.6 -3.12 6.52 -3.12 z M309.08 19.76 l5.28 0 l0 19.52 c0 5.64 -4.12 9.68 -10.44 9.68 c-4.96 0 -8.08 -2.28 -9.76 -5.32 l4.6 -1.64 c1.04 1.64 2.72 2.6 5.28 2.6 c3.32 0 5 -2.32 5.04 -5.32 l0 -2.44 c-1.52 1.88 -3.72 2.92 -6.4 2.92 c-5.8 0 -10 -4.52 -10 -10.28 c0 -6.08 4.2 -10.28 10 -10.28 c2.68 0 4.88 1.04 6.4 2.92 l0 -2.36 z M303.59999999999997 35 c3.24 0 5.6 -2.24 5.6 -5.52 c0 -3.24 -2.36 -5.52 -5.6 -5.52 c-3.36 0 -5.68 2.24 -5.68 5.52 s2.32 5.52 5.68 5.52 z"/></g><g id="SvgjsG2084" featureKey="sloganFeature-0" transform="matrix(0.5122147959564846,0,0,0.5122147959564846,87.38333564166959,213.09062029113772)" fill="#000"><path d="M5.12 20.32 c-1.64 0 -4.14 -0.72 -3.9 -1.6 l0.2 -0.74 c0.56 -2.1 1.22 0.98 4.52 0.98 c1.68 0 2.5 -0.82 2.5 -1.98 c0 -0.94 -0.6 -1.34 -2.02 -2.22 l-1.94 -1.22 c-2.16 -1.36 -3.04 -2.2 -3.04 -3.7 c0 -2.46 2.4 -4.16 4.88 -4.16 c1.52 0 3.46 0.66 3.24 1.34 l-0.24 0.76 c-0.62 1.94 -1.12 -0.74 -3.86 -0.74 c-1.42 0 -2.16 0.72 -2.16 1.78 c0 0.9 0.54 1.4 1.88 2.22 l2.1 1.3 c2.12 1.32 2.98 2.22 2.98 3.66 c0 2.5 -2.46 4.32 -5.14 4.32 z M22.8495 20.32 c-2.82 0 -5.98 -1.5 -5.98 -5.56 l0 -6.28 c0 -1.26 -0.64 -1.68 -1.62 -1.8 c-0.16 -0.02 -0.04 -0.68 0.12 -0.68 l5.46 0 c0.16 0 0.28 0.66 0.12 0.68 c-0.8 0.1 -1.6 0.4 -1.6 1.8 l0 6.38 c0 2.8 1.62 4.1 3.74 4.1 c2.18 0 3.92 -1.3 3.92 -4.1 l0 -6.38 c0 -1.3 -0.74 -1.66 -1.72 -1.8 c-0.14 -0.02 -0.04 -0.68 0.12 -0.68 l4.5 0 c0.14 0 0.26 0.66 0.1 0.68 c-0.8 0.1 -1.6 0.4 -1.6 1.8 l0 6.26 c0 3.68 -2.38 5.58 -5.56 5.58 z M46.699 10.24 c0 3.56 -3.34 5.06 -7.76 4.4 l0 2.88 c0 1.4 0.96 1.64 2.24 1.8 c0.14 0.02 0.04 0.68 -0.12 0.68 l-6.06 0 c-0.16 0 -0.28 -0.66 -0.12 -0.68 c1.02 -0.14 1.66 -0.54 1.66 -1.8 l0 -8.92 c0 -1.32 -0.7 -1.7 -1.66 -1.96 c-0.16 -0.04 -0.06 -0.7 0.12 -0.68 c0.78 0.1 1.66 0.12 2.3 0.12 c1.48 0 2.72 -0.12 3.74 -0.12 c3.1 0 5.66 1.14 5.66 4.28 z M40.538999999999994 7 c-1.26 0 -1.6 0.44 -1.6 1.6 l0 5.06 c3.4 0.48 5.18 -0.34 5.18 -2.96 c0 -2.38 -1.52 -3.7 -3.58 -3.7 z M63.60849999999999 10.24 c0 3.56 -3.34 5.06 -7.76 4.4 l0 2.88 c0 1.4 0.96 1.64 2.24 1.8 c0.14 0.02 0.04 0.68 -0.12 0.68 l-6.06 0 c-0.16 0 -0.28 -0.66 -0.12 -0.68 c1.02 -0.14 1.66 -0.54 1.66 -1.8 l0 -8.92 c0 -1.32 -0.7 -1.7 -1.66 -1.96 c-0.16 -0.04 -0.06 -0.7 0.12 -0.68 c0.78 0.1 1.66 0.12 2.3 0.12 c1.48 0 2.72 -0.12 3.74 -0.12 c3.1 0 5.66 1.14 5.66 4.28 z M57.448499999999996 7 c-1.26 0 -1.6 0.44 -1.6 1.6 l0 5.06 c3.4 0.48 5.18 -0.34 5.18 -2.96 c0 -2.38 -1.52 -3.7 -3.58 -3.7 z M68.518 20.04 c-0.2 0.02 -0.28 -0.68 -0.12 -0.72 c1.16 -0.3 2.06 -0.48 2.06 -1.96 l0 -8.88 c0 -1.4 -0.82 -1.68 -1.68 -1.8 c-0.16 -0.02 -0.04 -0.68 0.1 -0.68 l5.52 0 c0.14 0 0.24 0.66 0.1 0.68 c-0.84 0.1 -1.64 0.4 -1.64 1.8 l0 8.88 c0 1.14 0.48 1.56 2.14 1.56 c3.02 0 4.22 -1.38 4.7 -2.14 c0.14 -0.22 0.68 -0.12 0.68 0.22 c0 1.02 -0.86 3.04 -2.12 3.04 c-1.12 -0.06 -2.22 -0.12 -3.9 -0.12 c-1.84 0 -4.02 -0.06 -5.84 0.12 z M98.5675 6 c0.24 0 0.3 0.64 0.06 0.68 c-0.78 0.12 -1.46 0.68 -2.38 2.12 l-3.2 5 l0 3.72 c0 1.4 0.8 1.64 2.04 1.8 c0.14 0.02 0.04 0.68 -0.12 0.68 l-6.26 0 c-0.16 0 -0.26 -0.66 -0.12 -0.68 c1.32 -0.18 2.06 -0.44 2.06 -1.8 l0 -3.64 l-3.36 -5.06 c-0.92 -1.38 -1.48 -2 -2.34 -2.14 c-0.26 -0.04 -0.2 -0.68 0.06 -0.68 l5.28 0 c0.26 0 0.3 0.64 0.06 0.68 c-0.88 0.14 -1.22 0.82 -0.36 2.12 l2.54 3.78 l2.44 -3.78 c0.84 -1.3 0.34 -1.96 -0.72 -2.12 c-0.28 -0.04 -0.2 -0.68 0.04 -0.68 l4.28 0 z M118.7065 20.32 c-3.36 0 -7.9 -1.96 -7.9 -7.06 c0 -3.46 2.12 -7.58 7.72 -7.58 c2.32 0 4.32 0.72 4.08 1.42 l-0.26 0.78 c-0.72 2.14 -1.5 -0.6 -5.06 -0.6 c-2.86 0 -4.26 1.86 -4.26 4.74 c0 4.5 3.42 6.38 6.16 6.38 c0.36 0 2.18 -0.28 3.22 -0.94 c0.16 -0.1 0.58 0.36 0.46 0.54 c-0.86 1.26 -3.54 2.32 -4.16 2.32 z M143.016 19.32 c0.16 0.02 0.04 0.68 -0.12 0.68 l-5.48 0 c-0.16 0 -0.28 -0.66 -0.12 -0.68 c1.02 -0.14 1.66 -0.54 1.66 -1.8 l0 -3.44 c-0.1 -0.34 -0.52 -0.34 -0.9 -0.34 l-5.12 0 c-0.38 0 -0.8 0 -0.9 0.34 l0 3.44 c0 1.4 0.8 1.68 1.66 1.8 c0.16 0.02 0.04 0.68 -0.12 0.68 l-5.48 0 c-0.16 0 -0.28 -0.66 -0.12 -0.68 c1.02 -0.14 1.66 -0.54 1.66 -1.8 l0 -9.04 c0 -1.26 -0.64 -1.66 -1.66 -1.8 c-0.16 -0.02 -0.04 -0.68 0.12 -0.68 l5.48 0 c0.16 0 0.28 0.66 0.12 0.68 c-0.86 0.12 -1.66 0.4 -1.66 1.8 l0 3.66 c0.1 0.34 0.52 0.34 0.9 0.34 l5.12 0 c0.38 0 0.8 0 0.9 -0.34 l0 -3.66 c0 -1.26 -0.64 -1.66 -1.66 -1.8 c-0.16 -0.02 -0.04 -0.68 0.12 -0.68 l5.48 0 c0.16 0 0.28 0.66 0.12 0.68 c-0.86 0.12 -1.66 0.4 -1.66 1.8 l0 9.04 c0 1.4 0.8 1.68 1.66 1.8 z M162.5455 19.32 c0.28 0.04 0.2 0.68 -0.04 0.68 l-5.28 0 c-0.26 0 -0.28 -0.64 -0.06 -0.68 c0.74 -0.14 1.54 -0.4 0.8 -2.12 l-0.22 -0.5 c-0.2 -0.48 -0.54 -0.52 -1.14 -0.52 l-4.08 0 c-0.6 0 -0.94 0.04 -1.14 0.52 l-0.2 0.5 c-0.7 1.72 0.06 1.98 1.02 2.12 c0.26 0.04 0.2 0.68 -0.06 0.68 l-4.32 0 c-0.24 0 -0.3 -0.64 -0.06 -0.68 c0.82 -0.14 1.3 -0.42 2.04 -2.12 l3.38 -7.76 c0.78 -1.76 1.02 -2.58 1.02 -3.34 c0 -0.12 1.4 -0.44 1.46 -0.3 l4.88 11.38 c0.72 1.7 1.2 2.02 2 2.14 z M156.46550000000002 15.059999999999999 c0.28 0 0.58 -0.04 0.46 -0.32 l-2.34 -5.6 l-2.36 5.6 c-0.12 0.28 0.18 0.32 0.46 0.32 l3.78 0 z M167.435 20 c-0.16 0 -0.28 -0.66 -0.12 -0.68 c1.02 -0.14 1.66 -0.54 1.66 -1.8 l0 -9.04 c0 -1.26 -0.64 -1.66 -1.66 -1.8 c-0.16 -0.02 -0.04 -0.68 0.12 -0.68 l5.48 0 c0.16 0 0.28 0.66 0.12 0.68 c-0.86 0.12 -1.66 0.4 -1.66 1.8 l0 9.04 c0 1.4 0.8 1.68 1.66 1.8 c0.16 0.02 0.04 0.68 -0.12 0.68 l-5.48 0 z M191.1845 20.2 c-0.34 0 -0.52 -0.14 -0.74 -0.38 l-9.52 -9.96 l0 7.6 c0 1.36 0.8 1.58 1.94 1.86 c0.16 0.04 0.08 0.68 -0.12 0.68 l-4.74 0 c-0.16 0 -0.28 -0.62 -0.1 -0.68 c0.84 -0.28 1.64 -0.44 1.64 -1.86 l0 -7.76 c0 -1.42 -0.22 -2.1 -0.74 -2.8 c-0.18 -0.24 -0.36 -0.4 -0.36 -0.46 c0 -0.18 0.12 -0.44 0.4 -0.44 l1.48 0 c0.2 0 0.34 0.02 0.48 0.18 l9.32 9.86 l0 -7.52 c0 -1.42 -0.9 -1.58 -1.94 -1.84 c-0.16 -0.04 -0.08 -0.68 0.12 -0.68 l4.74 0 c0.16 0 0.26 0.64 0.1 0.68 c-0.88 0.26 -1.64 0.42 -1.64 1.84 l0 7.78 c0 1.32 0.04 2.78 0.24 3.52 c0.08 0.3 -0.24 0.38 -0.56 0.38 z M205.0435 20.04 c-0.2 0.02 -0.28 -0.68 -0.12 -0.72 c1.16 -0.3 2.06 -0.48 2.06 -1.96 l0 -8.88 c0 -1.4 -0.82 -1.68 -1.68 -1.8 c-0.16 -0.02 -0.04 -0.68 0.1 -0.68 l5.52 0 c0.14 0 0.24 0.66 0.1 0.68 c-0.84 0.1 -1.64 0.4 -1.64 1.8 l0 8.88 c0 1.14 0.48 1.56 2.14 1.56 c3.02 0 4.22 -1.38 4.7 -2.14 c0.14 -0.22 0.68 -0.12 0.68 0.22 c0 1.02 -0.86 3.04 -2.12 3.04 c-1.12 -0.06 -2.22 -0.12 -3.9 -0.12 c-1.84 0 -4.02 -0.06 -5.84 0.12 z M221.713 20 c-0.16 0 -0.28 -0.66 -0.12 -0.68 c1.02 -0.14 1.66 -0.54 1.66 -1.8 l0 -9.04 c0 -1.26 -0.64 -1.66 -1.66 -1.8 c-0.16 -0.02 -0.04 -0.68 0.12 -0.68 l5.48 0 c0.16 0 0.28 0.66 0.12 0.68 c-0.86 0.12 -1.66 0.4 -1.66 1.8 l0 9.04 c0 1.4 0.8 1.68 1.66 1.8 c0.16 0.02 0.04 0.68 -0.12 0.68 l-5.48 0 z M245.4625 20.2 c-0.34 0 -0.52 -0.14 -0.74 -0.38 l-9.52 -9.96 l0 7.6 c0 1.36 0.8 1.58 1.94 1.86 c0.16 0.04 0.08 0.68 -0.12 0.68 l-4.74 0 c-0.16 0 -0.28 -0.62 -0.1 -0.68 c0.84 -0.28 1.64 -0.44 1.64 -1.86 l0 -7.76 c0 -1.42 -0.22 -2.1 -0.74 -2.8 c-0.18 -0.24 -0.36 -0.4 -0.36 -0.46 c0 -0.18 0.12 -0.44 0.4 -0.44 l1.48 0 c0.2 0 0.34 0.02 0.48 0.18 l9.32 9.86 l0 -7.52 c0 -1.42 -0.9 -1.58 -1.94 -1.84 c-0.16 -0.04 -0.08 -0.68 0.12 -0.68 l4.74 0 c0.16 0 0.26 0.64 0.1 0.68 c-0.88 0.26 -1.64 0.42 -1.64 1.84 l0 7.78 c0 1.32 0.04 2.78 0.24 3.52 c0.08 0.3 -0.24 0.38 -0.56 0.38 z M258.112 19.32 c0.16 0.02 0.04 0.68 -0.12 0.68 l-5.48 0 c-0.16 0 -0.28 -0.66 -0.12 -0.68 c1.02 -0.14 1.66 -0.54 1.66 -1.8 l0 -9.04 c0 -1.26 -0.64 -1.66 -1.66 -1.8 c-0.16 -0.02 -0.04 -0.68 0.12 -0.68 l5.48 0 c0.16 0 0.28 0.66 0.12 0.68 c-0.86 0.12 -1.66 0.4 -1.66 1.8 l0 9.04 c0 1.4 0.8 1.68 1.66 1.8 z M266.612 19.5 c0.16 0 0.12 0.54 0 0.58 c-1.26 0.42 -3.04 0.28 -4.26 -1.04 l-5.66 -6.12 l4.52 -4.64 c0.96 -0.98 0.9 -1.42 -0.16 -1.6 c-0.24 -0.04 -0.14 -0.68 0.02 -0.68 l4.6 0 c0.16 0 0.28 0.66 0.08 0.68 c-0.88 0.12 -1.92 0.52 -3.18 1.82 l-3.54 3.64 l5.16 5.54 c1.3 1.38 2 1.82 2.42 1.82 z"/></g>
			</g>
		</svg>
	