<?xml version="1.0" encoding="utf-8"?>
<svg xmlns="http://www.w3.org/2000/svg" version="1.1" width="3192" height="3192" viewBox="0 0 3192 3192">
  <rect fill="#155263" width="3192" height="3192"/>
  <g transform="matrix(24.94735, 0, 0, 24.94735, -2319.814697, -1566.655762)" style="">
    <g id="SvgjsG2081" featurekey="rootContainer" transform="matrix(2.9875715273930257,0,0,2.9875715273930257,0.00001862645013371933,0.00001862645013371933)" fill="#ffc93c"/>
    <g id="SvgjsG2082" featurekey="symbolFeature-0" transform="matrix(1.256830705889151,0,0,1.256830705889151,93.59562772495522,62.85792227639139)" fill="#ffc93c">
      <g xmlns="http://www.w3.org/2000/svg">
        <path d="M30,46.7c-0.7-1.7-0.7-1.7-1.4-3.5l-2.7,0.1c-0.2-0.2-0.4-0.4-0.6-0.6l11.1-11.1l-0.2,1.1c0.8,0.4,0.8,0.4,1.7,0.9l1-0.9   c0.6,0.1,0.9,0.1,1.5,0.1l0.8,1.1c0.9-0.3,0.9-0.3,1.8-0.6l0-0.8l11.3,10.3l-1.5-0.2c-0.6,1.1-0.6,1.1-1.1,2.1l1.1,1.2   c-0.1,0.7-0.1,1.1-0.2,1.9l-1.3,1c0.4,1.1,0.4,1.1,0.7,2.3l1.7,0.1c0.5,0.6,0.7,0.9,1.2,1.4l-0.2,1.7c1.1,0.6,1.1,0.6,2.1,1.1   l1.2-1.1c0.7,0.1,1.1,0.1,1.9,0.2l1,1.3c1.1-0.4,1.1-0.4,2.3-0.7l0.1-1.7c0.6-0.5,0.9-0.7,1.4-1.2l1.7,0.2c0.6-1.1,0.6-1.1,1.1-2.1   l-1.1-1.2c0.1-0.7,0.1-1.1,0.2-1.9l1.3-1c-0.4-1.1-0.4-1.1-0.7-2.3l-1.7-0.1c-0.5-0.6-0.7-0.9-1.2-1.4l0.2-1.7   c-1.1-0.6-1.1-0.6-2.1-1.1l-1.2,1.1c-0.7-0.1-1.1-0.1-1.9-0.2l-1-1.3c-1.1,0.4-1.1,0.4-2.3,0.7l-0.1,1.6L44.4,31.1l1.1,0.2   c0.4-0.8,0.4-0.8,0.9-1.7l-0.9-1c0.1-0.6,0.1-0.9,0.1-1.5l1.1-0.8c-0.3-0.9-0.3-0.9-0.6-1.8l-1.3,0c-0.4-0.5-0.6-0.7-1-1.1L44,22   c-0.8-0.4-0.8-0.4-1.7-0.9l-1,0.9c-0.6-0.1-0.9-0.1-1.5-0.1l-0.8-1.1c-0.9,0.3-0.9,0.3-1.8,0.6l0,1.3c-0.5,0.4-0.7,0.6-1.1,1   l-1.3-0.2c-0.4,0.8-0.4,0.8-0.9,1.7l0.9,1c-0.1,0.6-0.1,0.9-0.1,1.5l-1.1,0.8c0.3,0.9,0.3,0.9,0.6,1.8l0.8,0L23.9,41.3   c0,0-0.1-0.1-0.1-0.1l0.1-2.7c-1.7-0.7-1.7-0.7-3.5-1.4l-1.8,2c-1.2,0-1.8,0-3,0l-1.8-2c-1.7,0.7-1.7,0.7-3.5,1.4l0.1,2.7   c-0.8,0.8-1.3,1.3-2.1,2.1l-2.7-0.1C5,44.9,5,44.9,4.3,46.7l2,1.8c0,1.2,0,1.8,0,3l-2,1.8C5,55,5,55,5.8,56.7l2.7-0.1   c0.8,0.8,1.3,1.3,2.1,2.1l-0.1,2.7c1.7,0.7,1.7,0.7,3.5,1.4l1.8-2c1.2,0,1.8,0,3,0l1.8,2c1.7-0.7,1.7-0.7,3.5-1.4l-0.1-2.7   c0.8-0.8,1.3-1.3,2.1-2.1l2.7,0.1c0.7-1.7,0.7-1.7,1.4-3.5l-2-1.8c0-1.2,0-1.8,0-3L30,46.7z M60,42.8c2.7,0.2,4.6,2.6,4.4,5.2   c-0.2,2.7-2.6,4.6-5.2,4.4c-2.7-0.2-4.6-2.6-4.4-5.2C55,44.5,57.4,42.5,60,42.8z M17.2,57.6c-4.2,0-7.6-3.4-7.6-7.6   s3.4-7.6,7.6-7.6s7.6,3.4,7.6,7.6S21.4,57.6,17.2,57.6z"/>
        <path d="M93.7,48.6l2-1.8C95,45,95,45,94.2,43.3l-2.7,0.1c-0.8-0.8-1.3-1.3-2.1-2.1l0.1-2.7c-1.7-0.7-1.7-0.7-3.5-1.4l-1.8,2   c-1.2,0-1.8,0-3,0l-1.8-2c-1.7,0.7-1.7,0.7-3.5,1.4l0.1,2.7c-0.8,0.8-1.3,1.3-2.1,2.1l-2.7-0.1C70.7,45,70.7,45,70,46.8l2,1.8   c0,1.2,0,1.8,0,3l-2,1.8c0.7,1.7,0.7,1.7,1.4,3.5l2.7-0.1c0.2,0.2,0.4,0.4,0.6,0.6L63.6,68.4l0.2-1.1c-0.8-0.4-0.8-0.4-1.7-0.9   l-1,0.9c-0.6-0.1-0.9-0.1-1.5-0.1l-0.8-1.1c-0.9,0.3-0.9,0.3-1.8,0.6l0,0.8L45.7,57.1l1.5,0.2c0.6-1.1,0.6-1.1,1.1-2.1L47.2,54   c0.1-0.7,0.1-1.1,0.2-1.9l1.3-1C48.3,50,48.3,50,48,48.8l-1.7-0.1c-0.5-0.6-0.7-0.9-1.2-1.4l0.2-1.7c-1.1-0.6-1.1-0.6-2.1-1.1   l-1.2,1.1c-0.7-0.1-1.1-0.1-1.9-0.2l-1-1.3c-1.1,0.4-1.1,0.4-2.3,0.7l-0.1,1.7c-0.6,0.5-0.9,0.7-1.4,1.2l-1.7-0.2   c-0.6,1.1-0.6,1.1-1.1,2.1l1.1,1.2c-0.1,0.7-0.1,1.1-0.2,1.9l-1.3,1c0.4,1.1,0.4,1.1,0.7,2.3l1.7,0.1c0.5,0.6,0.7,0.9,1.2,1.4   l-0.2,1.7c1.1,0.6,1.1,0.6,2.1,1.1l1.2-1.1c0.7,0.1,1.1,0.1,1.9,0.2l1,1.3c1.1-0.4,1.1-0.4,2.3-0.7l0.1-1.6l11.6,10.6l-1.1-0.2   c-0.4,0.8-0.4,0.8-0.9,1.7l0.9,1c-0.1,0.6-0.1,0.9-0.1,1.5l-1.1,0.8c0.3,0.9,0.3,0.9,0.6,1.8l1.3,0c0.4,0.5,0.6,0.7,1,1.1L56,78   c0.8,0.4,0.8,0.4,1.7,0.9l1-0.9c0.6,0.1,0.9,0.1,1.5,0.1l0.8,1.1c0.9-0.3,0.9-0.3,1.8-0.6l0-1.3c0.5-0.4,0.7-0.6,1.1-1l1.3,0.2   c0.4-0.8,0.4-0.8,0.9-1.7l-0.9-1c0.1-0.6,0.1-0.9,0.1-1.5l1.1-0.8c-0.3-0.9-0.3-0.9-0.6-1.8l-0.8,0l11.1-11.1c0,0,0.1,0.1,0.1,0.1   l-0.1,2.7c1.7,0.7,1.7,0.7,3.5,1.4l1.8-2c1.2,0,1.8,0,3,0l1.8,2c1.7-0.7,1.7-0.7,3.5-1.4l-0.1-2.7c0.8-0.8,1.3-1.3,2.1-2.1l2.7,0.1   c0.7-1.7,0.7-1.7,1.4-3.5l-2-1.8C93.7,50.4,93.7,49.8,93.7,48.6z M40,57.2c-2.7-0.2-4.6-2.6-4.4-5.2c0.2-2.7,2.6-4.6,5.2-4.4   c2.7,0.2,4.6,2.6,4.4,5.2C45,55.5,42.6,57.5,40,57.2z M82.8,57.7c-4.2,0-7.6-3.4-7.6-7.6s3.4-7.6,7.6-7.6s7.6,3.4,7.6,7.6   S87.1,57.7,82.8,57.7z"/>
      </g>
    </g>
    <g id="SvgjsG2083" featurekey="nameFeature-0" transform="matrix(0.6391410294094987,0,0,0.6391410294094987,55.07963718584457,175.122842377266)" fill="#ffc93c"/>
    <g id="SvgjsG2084" featurekey="sloganFeature-0" transform="matrix(0.5122147959564846,0,0,0.5122147959564846,87.38333564166959,213.09062029113772)" fill="#ffc93c"/>
  </g>
</svg>