<?xml version="1.0" encoding="utf-8"?>
<svg xmlns="http://www.w3.org/2000/svg" viewBox="0 0 3192 3192" width="3192px" height="3192px">
  <ellipse style="fill: rgb(21, 82, 99); stroke: rgb(255, 201, 60); stroke-width: 50px; transform-box: fill-box; transform-origin: 50% 50%;" cx="1600" cy="1600" rx="1546.52" ry="1546.52"/>
  <path d="M 1080 1540.09 C 1061.48 1495.11 1061.48 1495.11 1042.95 1447.49 L 971.515 1450.14 C 966.224 1444.84 960.932 1439.54 955.64 1434.27 L 1249.33 1140.57 L 1244.04 1169.67 C 1265.21 1180.25 1265.21 1180.25 1289.02 1193.48 L 1315.49 1169.67 C 1331.35 1172.31 1339.29 1172.31 1355.17 1172.31 L 1376.34 1201.42 C 1400.15 1193.48 1400.15 1193.48 1423.96 1185.55 L 1423.96 1164.38 L 1722.95 1436.9 L 1683.27 1431.6 C 1667.39 1460.71 1667.39 1460.71 1654.15 1487.16 L 1683.27 1518.93 C 1680.62 1537.44 1680.62 1548.03 1677.96 1569.19 L 1643.58 1595.66 C 1654.15 1624.75 1654.15 1624.75 1662.09 1656.5 L 1707.07 1659.15 C 1720.29 1675.03 1725.59 1682.97 1738.82 1696.2 L 1733.53 1741.18 C 1762.64 1757.05 1762.64 1757.05 1789.09 1770.29 L 1820.85 1741.18 C 1839.37 1743.82 1849.95 1743.82 1871.12 1746.47 L 1897.58 1780.87 C 1926.68 1770.29 1926.68 1770.29 1958.44 1762.34 L 1961.08 1717.36 C 1976.96 1704.12 1984.9 1698.84 1998.13 1685.62 L 2043.1 1690.91 C 2058.98 1661.79 2058.98 1661.79 2072.22 1635.35 L 2043.1 1603.59 C 2045.75 1585.07 2045.75 1574.49 2048.39 1553.32 L 2082.8 1526.85 C 2072.22 1497.77 2072.22 1497.77 2064.27 1466 L 2019.29 1463.35 C 2006.06 1447.49 2000.77 1439.54 1987.54 1426.3 L 1992.84 1381.34 C 1963.72 1365.46 1963.72 1365.46 1937.27 1352.23 L 1905.51 1381.34 C 1887 1378.69 1876.41 1378.69 1855.24 1376.03 L 1828.79 1341.65 C 1799.69 1352.23 1799.69 1352.23 1767.93 1360.17 L 1765.29 1402.5 L 1461 1127.33 L 1490.11 1132.63 C 1500.7 1111.46 1500.7 1111.46 1513.93 1087.65 L 1490.11 1061.19 C 1492.76 1045.31 1492.76 1037.37 1492.76 1021.5 L 1521.86 1000.33 C 1513.93 976.519 1513.93 976.519 1505.98 952.704 L 1471.58 952.704 C 1461 939.475 1455.71 934.184 1445.13 923.599 L 1450.43 886.557 C 1429.25 875.973 1429.25 875.973 1405.44 862.744 L 1378.98 886.557 C 1363.11 883.911 1355.17 883.911 1339.29 883.911 L 1318.12 854.806 C 1294.32 862.744 1294.32 862.744 1270.5 870.681 L 1270.5 905.079 C 1257.28 915.662 1251.98 920.955 1241.39 931.537 L 1207 926.246 C 1196.42 947.414 1196.42 947.414 1183.18 971.227 L 1207 997.685 C 1204.35 1013.56 1204.35 1021.5 1204.35 1037.37 L 1175.25 1058.54 C 1183.18 1082.36 1183.18 1082.36 1191.12 1106.17 L 1212.29 1106.17 L 918.598 1397.21 C 918.598 1397.21 915.952 1394.57 915.952 1394.57 L 918.598 1323.13 C 873.617 1304.61 873.617 1304.61 825.992 1286.08 L 778.365 1338.99 C 746.614 1338.99 730.738 1338.99 698.987 1338.99 L 651.361 1286.08 C 606.381 1304.61 606.381 1304.61 558.754 1323.13 L 561.401 1394.57 C 540.233 1415.73 527.003 1428.96 505.837 1450.14 L 434.398 1447.49 C 418.521 1492.46 418.521 1492.46 400 1540.09 L 452.919 1587.71 C 452.919 1619.46 452.919 1635.35 452.919 1667.08 L 400 1714.72 C 418.521 1759.7 418.521 1759.7 439.689 1804.67 L 511.129 1802.03 C 532.296 1823.2 545.525 1836.44 566.694 1857.59 L 564.046 1929.04 C 609.027 1947.56 609.027 1947.56 656.653 1966.09 L 704.28 1913.17 C 736.03 1913.17 751.907 1913.17 783.657 1913.17 L 831.283 1966.09 C 876.263 1947.56 876.263 1947.56 923.889 1929.04 L 921.245 1857.59 C 942.41 1836.44 955.64 1823.2 976.808 1802.03 L 1048.25 1804.67 C 1066.77 1759.7 1066.77 1759.7 1085.29 1712.07 L 1032.37 1664.44 C 1032.37 1632.7 1032.37 1616.82 1032.37 1585.07 L 1080 1540.09 Z M 1873.77 1436.9 C 1945.21 1442.2 1995.48 1505.68 1990.19 1574.49 C 1984.9 1645.93 1921.4 1696.2 1852.6 1690.91 C 1781.17 1685.62 1730.89 1622.11 1736.19 1553.32 C 1741.46 1481.88 1804.98 1428.96 1873.77 1436.9 Z M 741.322 1828.51 C 630.194 1828.51 540.233 1738.54 540.233 1627.4 C 540.233 1516.27 630.194 1426.3 741.322 1426.3 C 852.45 1426.3 942.41 1516.27 942.41 1627.4 C 942.41 1738.54 852.45 1828.51 741.322 1828.51 Z" style="fill: rgb(255, 201, 60);"/>
  <path d="M 2765.43 1590.36 L 2818.35 1542.74 C 2799.83 1495.11 2799.83 1495.11 2778.67 1450.14 L 2707.23 1452.77 C 2686.06 1431.6 2672.83 1418.38 2651.66 1397.21 L 2654.31 1325.77 C 2609.32 1307.25 2609.32 1307.25 2561.71 1288.73 L 2514.07 1341.65 C 2482.33 1341.65 2466.45 1341.65 2434.69 1341.65 L 2387.07 1288.73 C 2342.09 1307.25 2342.09 1307.25 2294.46 1325.77 L 2297.11 1397.21 C 2275.95 1418.38 2262.71 1431.6 2241.54 1452.77 L 2170.11 1450.14 C 2156.88 1495.11 2156.88 1495.11 2138.36 1542.74 L 2191.27 1590.36 C 2191.27 1622.11 2191.27 1637.99 2191.27 1669.74 L 2138.36 1717.36 C 2156.88 1762.34 2156.88 1762.34 2175.4 1809.96 L 2246.84 1807.33 C 2252.14 1812.61 2257.42 1817.91 2262.71 1823.2 L 1969.02 2114.26 L 1974.3 2085.15 C 1953.15 2074.57 1953.15 2074.57 1929.33 2061.34 L 1902.88 2085.15 C 1887 2082.5 1879.06 2082.5 1863.18 2082.5 L 1842.02 2053.39 C 1818.21 2061.34 1818.21 2061.34 1794.38 2069.28 L 1794.38 2090.43 L 1495.41 1815.27 L 1535.09 1820.56 C 1550.97 1791.45 1550.97 1791.45 1564.21 1764.98 L 1535.09 1733.25 C 1537.74 1714.72 1537.74 1704.12 1540.37 1682.97 L 1574.78 1656.5 C 1564.21 1627.4 1564.21 1627.4 1556.26 1595.66 L 1511.28 1593.02 C 1498.05 1577.13 1492.76 1569.19 1479.53 1555.95 L 1484.81 1510.98 C 1455.71 1495.11 1455.71 1495.11 1429.25 1481.88 L 1397.51 1510.98 C 1378.98 1508.33 1368.4 1508.33 1347.23 1505.68 L 1320.77 1471.29 C 1291.66 1481.88 1291.66 1481.88 1259.92 1489.82 L 1257.28 1534.81 C 1241.39 1548.03 1233.46 1553.32 1220.23 1566.55 L 1175.25 1561.25 C 1159.38 1590.36 1159.38 1590.36 1146.15 1616.82 L 1175.25 1648.57 C 1172.59 1667.08 1172.59 1677.68 1169.95 1698.84 L 1135.55 1725.3 C 1146.15 1754.41 1146.15 1754.41 1154.08 1786.15 L 1199.05 1788.81 C 1212.29 1804.67 1217.58 1812.61 1230.81 1825.84 L 1225.52 1870.84 C 1254.62 1886.72 1254.62 1886.72 1281.09 1899.93 L 1312.84 1870.84 C 1331.35 1873.47 1341.94 1873.47 1363.11 1876.12 L 1389.57 1910.51 C 1418.67 1899.93 1418.67 1899.93 1450.43 1891.99 L 1453.06 1849.66 L 1759.99 2130.12 L 1730.89 2124.83 C 1720.29 2145.99 1720.29 2145.99 1707.07 2169.82 L 1730.89 2196.27 C 1728.25 2212.14 1728.25 2220.08 1728.25 2235.97 L 1699.14 2257.12 C 1707.07 2280.94 1707.07 2280.94 1715.01 2304.75 L 1749.42 2304.75 C 1759.99 2317.99 1765.29 2323.28 1775.86 2333.86 L 1767.93 2368.26 C 1789.09 2378.84 1789.09 2378.84 1812.91 2392.08 L 1839.37 2368.26 C 1855.24 2370.92 1863.18 2370.92 1879.06 2370.92 L 1900.22 2400 C 1924.04 2392.08 1924.04 2392.08 1947.85 2384.13 L 1947.85 2349.75 C 1961.08 2339.16 1966.38 2333.86 1976.96 2323.28 L 2011.34 2328.56 C 2021.94 2307.4 2021.94 2307.4 2035.18 2283.59 L 2011.34 2257.12 C 2014 2241.25 2014 2233.31 2014 2217.45 L 2043.1 2196.27 C 2035.18 2172.45 2035.18 2172.45 2027.23 2148.64 L 2006.06 2148.64 L 2299.76 1854.95 C 2299.76 1854.95 2302.4 1857.59 2302.4 1857.59 L 2299.76 1929.04 C 2344.74 1947.56 2344.74 1947.56 2392.36 1966.09 L 2439.98 1913.17 C 2471.74 1913.17 2487.62 1913.17 2519.37 1913.17 L 2566.99 1966.09 C 2611.98 1947.56 2611.98 1947.56 2659.61 1929.04 L 2656.95 1857.59 C 2678.12 1836.44 2691.35 1823.2 2712.5 1802.03 L 2783.96 1804.67 C 2802.48 1759.7 2802.48 1759.7 2821 1712.07 L 2768.07 1664.44 C 2765.43 1637.99 2765.43 1622.11 2765.43 1590.36 Z M 1344.58 1817.91 C 1273.15 1812.61 1222.87 1749.11 1228.16 1680.32 C 1233.46 1608.88 1296.97 1558.61 1365.75 1563.89 C 1437.19 1569.19 1487.47 1632.7 1482.18 1701.48 C 1476.88 1772.93 1413.38 1825.84 1344.58 1817.91 Z M 2477.02 1831.14 C 2365.9 1831.14 2275.95 1741.18 2275.95 1630.06 C 2275.95 1518.93 2365.9 1428.96 2477.02 1428.96 C 2588.15 1428.96 2678.12 1518.93 2678.12 1630.06 C 2678.12 1741.18 2590.81 1831.14 2477.02 1831.14 Z" style="fill: rgb(255, 201, 60);"/>
  <ellipse style="fill: rgb(216, 216, 216); stroke: rgb(0, 0, 0);" cx="2101.99" cy="1601.99" rx="1.988" ry="1.988"/>
</svg>